<svg id="ic_head" xmlns="http://www.w3.org/2000/svg" width="34" height="34" viewBox="0 0 34 34">
  <rect id="Area" width="34" height="34" fill="#fcfcfc" opacity="0"/>
  <g id="Icon" transform="translate(5.748 4.143)">
    <path id="Path" d="M30.082,37.864a1.833,1.833,0,0,1-1.833-1.833V33.187a3.858,3.858,0,0,0-3.854-3.853H13.021a3.858,3.858,0,0,0-3.854,3.853v2.844a1.833,1.833,0,1,1-3.667,0V33.187a7.529,7.529,0,0,1,7.521-7.52H24.394a7.529,7.529,0,0,1,7.521,7.52v2.844A1.833,1.833,0,0,1,30.082,37.864Z" transform="translate(-7.333 -10.439)" fill="#3d3d3d"/>
    <path id="Path-2" data-name="Path" d="M5.687-1.833a7.52,7.52,0,1,1-7.52,7.52A7.529,7.529,0,0,1,5.687-1.833Zm0,11.374A3.854,3.854,0,1,0,1.833,5.687,3.858,3.858,0,0,0,5.687,9.541Z" transform="translate(5.687 0)" fill="#3d3d3d"/>
  </g>
</svg>
