<svg id="ic_search" xmlns="http://www.w3.org/2000/svg" width="34" height="34" viewBox="0 0 34 34">
  <rect id="Area" width="34" height="34" fill="#fcfcfc" opacity="0"/>
  <g id="Icon" transform="translate(4.551 4.143)">
    <path id="Path" d="M11.374-1.833A13.207,13.207,0,0,1,24.582,11.374,13.207,13.207,0,0,1,11.374,24.582,13.207,13.207,0,0,1-1.833,11.374,13.207,13.207,0,0,1,11.374-1.833Zm0,22.748a9.541,9.541,0,1,0-9.541-9.541A9.552,9.552,0,0,0,11.374,20.915Z" transform="translate(0 0)" fill="#3d3d3d"/>
    <path id="Line" d="M6.185,8.018a1.828,1.828,0,0,1-1.3-.537L-1.3,1.3A1.833,1.833,0,0,1-1.3-1.3,1.833,1.833,0,0,1,1.3-1.3L7.481,4.888a1.833,1.833,0,0,1-1.3,3.13Z" transform="translate(19.407 19.407)" fill="#3d3d3d"/>
  </g>
</svg>
