<svg xmlns="http://www.w3.org/2000/svg" width="1920" height="101.448" viewBox="0 0 1920 101.448">
  <path id="wave_top_green" d="M5932,101.448H4012V15.264c.158.046,18.321,5.362,51.073,13.357,19.052,4.651,39.148,9.257,59.729,13.691,25.715,5.539,52.25,10.819,78.87,15.694,67.765,12.409,136.465,22.3,204.193,29.385,40.22,4.21,80.54,7.468,119.841,9.684,43.227,2.437,86.3,3.673,128.016,3.673,190.484,0,350.488-31.37,491.657-59.047,56.173-11.013,109.231-21.416,160.285-29.095,27.307-4.107,51.857-7.11,75.053-9.181C5406.52,1.12,5430.211,0,5453.143,0c5.273,0,10.348.058,15.515.179,49.9,1.163,105.314,5.409,164.694,12.619,47.5,5.768,97.639,13.435,149.019,22.789,45.7,8.32,83.952,16.465,108,21.833,24.857,5.55,39.968,9.331,41.609,9.744l.023.006v34.277Z" transform="translate(-4012 0)" fill="#dce9cc"/>
</svg>
