<svg xmlns="http://www.w3.org/2000/svg" width="1921" height="90.985" viewBox="0 0 1921 90.985">
  <path id="wave_bottom" d="M4413.8,224.486c-37.085,0-74.533-1.129-111.3-3.355-33.408-2.023-67.012-5-99.879-8.841-48.812-5.711-96.964-13.437-143.121-22.965V133.5h1921v87.9c-10.747-1.862-28.3-4.855-50.885-8.529-39.063-6.352-100.637-15.94-172.134-25.544-80.338-10.789-156.491-19.384-226.343-25.544-41.46-3.658-81.167-6.49-118.018-8.418-40.494-2.118-78.511-3.193-113-3.193-34.127,0-68.914,1.008-106.348,3.08-33.418,1.853-68.218,4.518-106.387,8.148-71.027,6.758-143.7,15.974-213.971,24.886h-.033l-.125.017-.106.012-.026,0-.034,0c-73.59,9.332-149.686,18.983-226.087,26.158-41.188,3.871-78.989,6.715-115.561,8.692-19.83,1.072-39.525,1.893-58.539,2.439C4452.964,224.194,4433.079,224.486,4413.8,224.486Z" transform="translate(-4059.5 -133.5)" fill="#dce9cc"/>
</svg>
