<svg xmlns="http://www.w3.org/2000/svg" width="2095.805" height="146.986" viewBox="0 0 2095.805 146.986"><path d="M6232,421.486h0c-.219-.041-26.122-4.739-68.385-11.612-39.083-6.356-100.671-15.947-172.133-25.544-80.318-10.787-156.471-19.381-226.343-25.544-41.493-3.66-81.2-6.492-118.02-8.418-40.508-2.119-78.525-3.193-112.995-3.193-34.125,0-68.912,1.008-106.348,3.082-33.4,1.851-68.2,4.516-106.387,8.148-71.015,6.756-143.771,15.982-214.131,24.9-73.659,9.341-149.827,19-226.254,26.18-41.186,3.869-78.985,6.712-115.559,8.691-19.842,1.073-39.538,1.894-58.539,2.441-19.95.574-39.835.865-59.1.865-37.091,0-74.539-1.128-111.3-3.354-33.421-2.023-67.026-5-99.88-8.842-55.336-6.474-109.6-15.5-161.283-26.831-20.3-4.451-40.253-9.272-59.293-14.33-15.232-4.047-29.921-8.252-43.657-12.5-23.238-7.187-36.064-12.147-36.191-12.2V274.5H6232V421.485Z" transform="translate(-4136.196 -274.501)" fill="#fff"/></svg>