<svg xmlns="http://www.w3.org/2000/svg" width="2193.069" height="104.516" viewBox="0 0 2193.069 104.516"><path d="M-58.218,104.517V0H2134.851c-11.95,8.81-27.738,17.238-43.006,25.388l-.764.408-3.017,1.612a134.566,134.566,0,0,1-15.482,6.96c-5.948,2.265-12.608,4.41-19.794,6.375-15.234,4.166-33.578,7.722-54.523,10.572-22.436,3.052-48.6,5.4-77.766,6.963-30.973,1.665-66.3,2.509-105.006,2.509-45.32,0-96.749-1.157-152.859-3.438-59.144-2.406-125.284-6.134-196.582-11.082-72.88-5.058-136.43-9.683-192.5-13.763-133.295-9.7-229.6-16.708-336.8-21.41C881.511,8.672,824.767,6.95,763.274,5.831,699.017,4.661,626.782,4.093,542.444,4.093c-49.336,0-97.992,1.452-144.615,4.315-42.383,2.6-84.038,6.43-123.809,11.376C207.037,28.114,144.094,39.728,86.939,54.305,64.488,60.031,42.885,66.234,22.728,72.742,6.607,77.948-8.628,83.359-22.555,88.826c-23.7,9.3-35.544,15.628-35.661,15.691Z" transform="translate(2134.851 104.517) rotate(180)" fill="#fff"/></svg>