<svg xmlns="http://www.w3.org/2000/svg" width="1920.002" height="74.283" viewBox="0 0 1920.002 74.283">
  <path id="wave_top" d="M5909,74.283H3989V17.063c5.692-.383,11.58-.739,17.5-1.058,30.994-1.665,66.323-2.509,105.007-2.509,45.355,0,96.783,1.157,152.856,3.439,59.167,2.405,125.308,6.134,196.584,11.081,73.823,5.125,136.63,9.7,192.044,13.729H4653l.092.007.354.025.039,0,.032,0,.174.013h.021l.009,0h.012c133.146,9.687,229.346,16.686,336.517,21.388,55.31,2.423,112.054,4.145,173.473,5.263,64.268,1.17,136.5,1.74,220.833,1.74,49.337,0,97.992-1.452,144.614-4.317,42.384-2.6,84.04-6.43,123.811-11.376,66.969-8.327,129.911-19.941,187.078-34.519,22.435-5.722,44.039-11.925,64.212-18.438C5905.845,1.034,5907.392.53,5909,0V74.282h0Z" transform="translate(-3989)" fill="#fff"/>
</svg>
